<mxfile host="app.diagrams.net" modified="2023-07-04T01:20:29.781Z" agent="Mozilla/5.0 (Windows NT 10.0; Win64; x64) AppleWebKit/537.36 (KHTML, like Gecko) Chrome/114.0.0.0 Safari/537.36" etag="fvKiUFQC_uJtPzukf2js" version="21.5.2" type="github">
  <diagram id="6a731a19-8d31-9384-78a2-239565b7b9f0" name="Page-1">
    <mxGraphModel dx="1946" dy="565" grid="1" gridSize="10" guides="1" tooltips="1" connect="1" arrows="1" fold="1" page="1" pageScale="1" pageWidth="1169" pageHeight="827" background="none" math="0" shadow="0">
      <root>
        <mxCell id="0" />
        <mxCell id="1" parent="0" />
        <mxCell id="2" value="start" style="shape=mxgraph.flowchart.terminator;strokeWidth=2;gradientColor=none;gradientDirection=north;fontStyle=0;html=1;" parent="1" vertex="1">
          <mxGeometry x="260" y="60" width="120" height="30" as="geometry" />
        </mxCell>
        <mxCell id="E7DTmkNFpHFhof6iy4eP-55" value="" style="edgeStyle=orthogonalEdgeStyle;rounded=0;orthogonalLoop=1;jettySize=auto;html=1;" edge="1" parent="1" source="6" target="2">
          <mxGeometry relative="1" as="geometry" />
        </mxCell>
        <mxCell id="E7DTmkNFpHFhof6iy4eP-58" style="edgeStyle=orthogonalEdgeStyle;rounded=0;orthogonalLoop=1;jettySize=auto;html=1;exitX=1;exitY=0.5;exitDx=0;exitDy=0;exitPerimeter=0;" edge="1" parent="1" source="6" target="E7DTmkNFpHFhof6iy4eP-62">
          <mxGeometry relative="1" as="geometry">
            <mxPoint x="450" y="165" as="targetPoint" />
            <Array as="points">
              <mxPoint x="410" y="165" />
              <mxPoint x="410" y="166" />
            </Array>
          </mxGeometry>
        </mxCell>
        <mxCell id="E7DTmkNFpHFhof6iy4eP-59" value="否" style="edgeLabel;html=1;align=center;verticalAlign=middle;resizable=0;points=[];" vertex="1" connectable="0" parent="E7DTmkNFpHFhof6iy4eP-58">
          <mxGeometry x="-0.205" y="-3" relative="1" as="geometry">
            <mxPoint as="offset" />
          </mxGeometry>
        </mxCell>
        <mxCell id="E7DTmkNFpHFhof6iy4eP-68" value="" style="edgeStyle=orthogonalEdgeStyle;rounded=0;orthogonalLoop=1;jettySize=auto;html=1;" edge="1" parent="1" source="6" target="E7DTmkNFpHFhof6iy4eP-65">
          <mxGeometry relative="1" as="geometry" />
        </mxCell>
        <mxCell id="E7DTmkNFpHFhof6iy4eP-69" value="是" style="edgeLabel;html=1;align=center;verticalAlign=middle;resizable=0;points=[];" vertex="1" connectable="0" parent="E7DTmkNFpHFhof6iy4eP-68">
          <mxGeometry x="-0.3086" relative="1" as="geometry">
            <mxPoint as="offset" />
          </mxGeometry>
        </mxCell>
        <mxCell id="6" value="判断是否输入周期数" style="shape=mxgraph.flowchart.decision;strokeWidth=2;gradientColor=none;gradientDirection=north;fontStyle=0;html=1;" parent="1" vertex="1">
          <mxGeometry x="271" y="130" width="99" height="70" as="geometry" />
        </mxCell>
        <mxCell id="7" style="fontStyle=1;strokeColor=#003366;strokeWidth=1;html=1;" parent="1" source="2" edge="1">
          <mxGeometry relative="1" as="geometry">
            <mxPoint x="320" y="130" as="targetPoint" />
          </mxGeometry>
        </mxCell>
        <mxCell id="34" value="create&#xa;status&#xa;report" style="shape=mxgraph.flowchart.data;strokeWidth=2;gradientColor=none;gradientDirection=north;fontStyle=0;html=1;" parent="1" vertex="1">
          <mxGeometry x="240.5" y="1490" width="159" height="80" as="geometry" />
        </mxCell>
        <mxCell id="37" value="project&#xa;complete?" style="shape=mxgraph.flowchart.decision;strokeWidth=2;gradientColor=none;gradientDirection=north;fontStyle=0;html=1;" parent="1" vertex="1">
          <mxGeometry x="271" y="1621.5" width="98" height="57" as="geometry" />
        </mxCell>
        <mxCell id="38" value="create&#xa;final&#xa;report" style="shape=mxgraph.flowchart.data;strokeWidth=2;gradientColor=none;gradientDirection=north;fontStyle=0;html=1;" parent="1" vertex="1">
          <mxGeometry x="240.5" y="1730" width="159" height="80" as="geometry" />
        </mxCell>
        <mxCell id="39" value="issue&#xa;bill of works" style="shape=mxgraph.flowchart.predefined_process;strokeWidth=2;gradientColor=none;gradientDirection=north;fontStyle=0;html=1;" parent="1" vertex="1">
          <mxGeometry x="560" y="1725" width="190" height="90" as="geometry" />
        </mxCell>
        <mxCell id="40" value="end" style="shape=mxgraph.flowchart.terminator;strokeWidth=2;gradientColor=none;gradientDirection=north;fontStyle=0;html=1;" parent="1" vertex="1">
          <mxGeometry x="260" y="1910" width="120" height="30" as="geometry" />
        </mxCell>
        <mxCell id="41" value="" style="edgeStyle=elbowEdgeStyle;elbow=vertical;exitX=0.5;exitY=1;exitPerimeter=0;entryX=0.5;entryY=0;entryPerimeter=0;fontStyle=1;strokeColor=#003366;strokeWidth=1;html=1;" parent="1" source="34" target="37" edge="1">
          <mxGeometry width="100" height="100" as="geometry">
            <mxPoint y="100" as="sourcePoint" />
            <mxPoint x="100" as="targetPoint" />
          </mxGeometry>
        </mxCell>
        <mxCell id="42" value="" style="edgeStyle=elbowEdgeStyle;elbow=vertical;exitX=0.5;exitY=1;exitPerimeter=0;entryX=0.5;entryY=0;entryPerimeter=0;fontStyle=1;strokeColor=#003366;strokeWidth=1;html=1;" parent="1" source="37" target="38" edge="1">
          <mxGeometry width="100" height="100" as="geometry">
            <mxPoint y="100" as="sourcePoint" />
            <mxPoint x="100" as="targetPoint" />
          </mxGeometry>
        </mxCell>
        <mxCell id="43" value="" style="edgeStyle=elbowEdgeStyle;elbow=vertical;exitX=0.5;exitY=1;exitPerimeter=0;entryX=0.5;entryY=0;entryPerimeter=0;fontStyle=1;strokeColor=#003366;strokeWidth=1;html=1;" parent="1" source="38" target="40" edge="1">
          <mxGeometry width="100" height="100" as="geometry">
            <mxPoint y="100" as="sourcePoint" />
            <mxPoint x="100" as="targetPoint" />
          </mxGeometry>
        </mxCell>
        <mxCell id="44" value="" style="edgeStyle=elbowEdgeStyle;elbow=vertical;exitX=0.905;exitY=0.5;exitPerimeter=0;entryX=0;entryY=0.5;entryPerimeter=0;fontStyle=1;strokeColor=#003366;strokeWidth=1;html=1;" parent="1" source="38" target="39" edge="1">
          <mxGeometry width="100" height="100" as="geometry">
            <mxPoint y="100" as="sourcePoint" />
            <mxPoint x="100" as="targetPoint" />
          </mxGeometry>
        </mxCell>
        <mxCell id="53" value="yes" style="text;fontStyle=0;html=1;strokeColor=none;gradientColor=none;fillColor=none;strokeWidth=2;align=center;" parent="1" vertex="1">
          <mxGeometry x="321" y="1680" width="40" height="26" as="geometry" />
        </mxCell>
        <mxCell id="55" value="no" style="text;fontStyle=0;html=1;strokeColor=none;gradientColor=none;fillColor=none;strokeWidth=2;" parent="1" vertex="1">
          <mxGeometry x="235" y="1624" width="40" height="26" as="geometry" />
        </mxCell>
        <mxCell id="E7DTmkNFpHFhof6iy4eP-62" value="结束" style="ellipse;whiteSpace=wrap;html=1;" vertex="1" parent="1">
          <mxGeometry x="450" y="140" width="60" height="50" as="geometry" />
        </mxCell>
        <mxCell id="E7DTmkNFpHFhof6iy4eP-70" style="edgeStyle=orthogonalEdgeStyle;rounded=0;orthogonalLoop=1;jettySize=auto;html=1;exitX=1;exitY=0.5;exitDx=0;exitDy=0;" edge="1" parent="1" source="E7DTmkNFpHFhof6iy4eP-65">
          <mxGeometry relative="1" as="geometry">
            <mxPoint x="460" y="280" as="targetPoint" />
          </mxGeometry>
        </mxCell>
        <mxCell id="E7DTmkNFpHFhof6iy4eP-72" value="否" style="edgeLabel;html=1;align=center;verticalAlign=middle;resizable=0;points=[];" vertex="1" connectable="0" parent="E7DTmkNFpHFhof6iy4eP-70">
          <mxGeometry x="-0.1524" y="1" relative="1" as="geometry">
            <mxPoint as="offset" />
          </mxGeometry>
        </mxCell>
        <mxCell id="E7DTmkNFpHFhof6iy4eP-77" value="" style="edgeStyle=orthogonalEdgeStyle;rounded=0;orthogonalLoop=1;jettySize=auto;html=1;" edge="1" parent="1" source="E7DTmkNFpHFhof6iy4eP-65" target="E7DTmkNFpHFhof6iy4eP-79">
          <mxGeometry relative="1" as="geometry">
            <mxPoint x="320" y="360" as="targetPoint" />
          </mxGeometry>
        </mxCell>
        <mxCell id="E7DTmkNFpHFhof6iy4eP-78" value="是" style="edgeLabel;html=1;align=center;verticalAlign=middle;resizable=0;points=[];" vertex="1" connectable="0" parent="E7DTmkNFpHFhof6iy4eP-77">
          <mxGeometry x="-0.15" y="-3" relative="1" as="geometry">
            <mxPoint as="offset" />
          </mxGeometry>
        </mxCell>
        <mxCell id="E7DTmkNFpHFhof6iy4eP-65" value="判断是否输入测试数据" style="rhombus;whiteSpace=wrap;html=1;" vertex="1" parent="1">
          <mxGeometry x="265" y="240" width="110" height="80" as="geometry" />
        </mxCell>
        <mxCell id="E7DTmkNFpHFhof6iy4eP-71" value="结束" style="ellipse;whiteSpace=wrap;html=1;" vertex="1" parent="1">
          <mxGeometry x="450" y="255" width="60" height="50" as="geometry" />
        </mxCell>
        <mxCell id="E7DTmkNFpHFhof6iy4eP-82" value="" style="edgeStyle=orthogonalEdgeStyle;rounded=0;orthogonalLoop=1;jettySize=auto;html=1;" edge="1" parent="1" source="E7DTmkNFpHFhof6iy4eP-79" target="E7DTmkNFpHFhof6iy4eP-81">
          <mxGeometry relative="1" as="geometry" />
        </mxCell>
        <mxCell id="E7DTmkNFpHFhof6iy4eP-79" value="初始化循环变量" style="rounded=0;whiteSpace=wrap;html=1;" vertex="1" parent="1">
          <mxGeometry x="260.5" y="360" width="119.5" height="50" as="geometry" />
        </mxCell>
        <mxCell id="E7DTmkNFpHFhof6iy4eP-84" value="" style="edgeStyle=orthogonalEdgeStyle;rounded=0;orthogonalLoop=1;jettySize=auto;html=1;" edge="1" parent="1" source="E7DTmkNFpHFhof6iy4eP-81" target="E7DTmkNFpHFhof6iy4eP-83">
          <mxGeometry relative="1" as="geometry" />
        </mxCell>
        <mxCell id="E7DTmkNFpHFhof6iy4eP-113" value="否" style="edgeLabel;html=1;align=center;verticalAlign=middle;resizable=0;points=[];" vertex="1" connectable="0" parent="E7DTmkNFpHFhof6iy4eP-84">
          <mxGeometry x="-0.2131" y="3" relative="1" as="geometry">
            <mxPoint x="1" y="3" as="offset" />
          </mxGeometry>
        </mxCell>
        <mxCell id="E7DTmkNFpHFhof6iy4eP-116" style="edgeStyle=orthogonalEdgeStyle;rounded=0;orthogonalLoop=1;jettySize=auto;html=1;exitX=0;exitY=0.5;exitDx=0;exitDy=0;" edge="1" parent="1" source="E7DTmkNFpHFhof6iy4eP-81" target="E7DTmkNFpHFhof6iy4eP-115">
          <mxGeometry relative="1" as="geometry" />
        </mxCell>
        <mxCell id="E7DTmkNFpHFhof6iy4eP-117" value="是" style="edgeLabel;html=1;align=center;verticalAlign=middle;resizable=0;points=[];" vertex="1" connectable="0" parent="E7DTmkNFpHFhof6iy4eP-116">
          <mxGeometry x="0.321" y="4" relative="1" as="geometry">
            <mxPoint as="offset" />
          </mxGeometry>
        </mxCell>
        <mxCell id="E7DTmkNFpHFhof6iy4eP-81" value="判断变量是否大于周期数或者是否手动结束" style="rhombus;whiteSpace=wrap;html=1;" vertex="1" parent="1">
          <mxGeometry x="265" y="440" width="110" height="60" as="geometry" />
        </mxCell>
        <mxCell id="E7DTmkNFpHFhof6iy4eP-125" value="" style="edgeStyle=orthogonalEdgeStyle;rounded=0;orthogonalLoop=1;jettySize=auto;html=1;" edge="1" parent="1" source="E7DTmkNFpHFhof6iy4eP-83" target="E7DTmkNFpHFhof6iy4eP-124">
          <mxGeometry relative="1" as="geometry" />
        </mxCell>
        <mxCell id="E7DTmkNFpHFhof6iy4eP-83" value="发送串口数据" style="whiteSpace=wrap;html=1;" vertex="1" parent="1">
          <mxGeometry x="260.5" y="530" width="120" height="60" as="geometry" />
        </mxCell>
        <mxCell id="E7DTmkNFpHFhof6iy4eP-88" value="" style="edgeStyle=orthogonalEdgeStyle;rounded=0;orthogonalLoop=1;jettySize=auto;html=1;" edge="1" parent="1" source="E7DTmkNFpHFhof6iy4eP-85" target="E7DTmkNFpHFhof6iy4eP-87">
          <mxGeometry relative="1" as="geometry" />
        </mxCell>
        <mxCell id="E7DTmkNFpHFhof6iy4eP-85" value="接收单片机返回数据" style="whiteSpace=wrap;html=1;" vertex="1" parent="1">
          <mxGeometry x="260.5" y="740" width="120" height="60" as="geometry" />
        </mxCell>
        <mxCell id="E7DTmkNFpHFhof6iy4eP-90" value="" style="edgeStyle=orthogonalEdgeStyle;rounded=0;orthogonalLoop=1;jettySize=auto;html=1;" edge="1" parent="1" source="E7DTmkNFpHFhof6iy4eP-87" target="E7DTmkNFpHFhof6iy4eP-89">
          <mxGeometry relative="1" as="geometry" />
        </mxCell>
        <mxCell id="E7DTmkNFpHFhof6iy4eP-91" value="是" style="edgeLabel;html=1;align=center;verticalAlign=middle;resizable=0;points=[];" vertex="1" connectable="0" parent="E7DTmkNFpHFhof6iy4eP-90">
          <mxGeometry x="-0.1871" y="-3" relative="1" as="geometry">
            <mxPoint as="offset" />
          </mxGeometry>
        </mxCell>
        <mxCell id="E7DTmkNFpHFhof6iy4eP-94" value="" style="edgeStyle=orthogonalEdgeStyle;rounded=0;orthogonalLoop=1;jettySize=auto;html=1;" edge="1" parent="1" source="E7DTmkNFpHFhof6iy4eP-87" target="E7DTmkNFpHFhof6iy4eP-93">
          <mxGeometry relative="1" as="geometry" />
        </mxCell>
        <mxCell id="E7DTmkNFpHFhof6iy4eP-87" value="判断数据一致性" style="rhombus;whiteSpace=wrap;html=1;" vertex="1" parent="1">
          <mxGeometry x="260" y="860" width="120" height="50" as="geometry" />
        </mxCell>
        <mxCell id="E7DTmkNFpHFhof6iy4eP-132" style="edgeStyle=orthogonalEdgeStyle;rounded=0;orthogonalLoop=1;jettySize=auto;html=1;exitX=0.5;exitY=1;exitDx=0;exitDy=0;entryX=0.5;entryY=0;entryDx=0;entryDy=0;" edge="1" parent="1" source="E7DTmkNFpHFhof6iy4eP-89" target="E7DTmkNFpHFhof6iy4eP-106">
          <mxGeometry relative="1" as="geometry" />
        </mxCell>
        <mxCell id="E7DTmkNFpHFhof6iy4eP-89" value="记录正确标识" style="rounded=1;whiteSpace=wrap;html=1;" vertex="1" parent="1">
          <mxGeometry x="410" y="940" width="90" height="30" as="geometry" />
        </mxCell>
        <mxCell id="E7DTmkNFpHFhof6iy4eP-130" style="edgeStyle=orthogonalEdgeStyle;rounded=0;orthogonalLoop=1;jettySize=auto;html=1;exitX=0.5;exitY=1;exitDx=0;exitDy=0;entryX=0.5;entryY=0;entryDx=0;entryDy=0;" edge="1" parent="1" source="E7DTmkNFpHFhof6iy4eP-93" target="E7DTmkNFpHFhof6iy4eP-106">
          <mxGeometry relative="1" as="geometry">
            <mxPoint x="315" y="1040" as="targetPoint" />
          </mxGeometry>
        </mxCell>
        <mxCell id="E7DTmkNFpHFhof6iy4eP-93" value="记录失败标识" style="whiteSpace=wrap;html=1;" vertex="1" parent="1">
          <mxGeometry x="110" y="940" width="100" height="30" as="geometry" />
        </mxCell>
        <mxCell id="E7DTmkNFpHFhof6iy4eP-110" style="edgeStyle=orthogonalEdgeStyle;rounded=0;orthogonalLoop=1;jettySize=auto;html=1;exitX=1;exitY=0.5;exitDx=0;exitDy=0;entryX=0.5;entryY=1;entryDx=0;entryDy=0;" edge="1" parent="1" source="E7DTmkNFpHFhof6iy4eP-106" target="E7DTmkNFpHFhof6iy4eP-109">
          <mxGeometry relative="1" as="geometry" />
        </mxCell>
        <mxCell id="E7DTmkNFpHFhof6iy4eP-106" value="记录周期状态并页面展示" style="rounded=0;whiteSpace=wrap;html=1;" vertex="1" parent="1">
          <mxGeometry x="255" y="1050" width="120" height="60" as="geometry" />
        </mxCell>
        <mxCell id="E7DTmkNFpHFhof6iy4eP-111" style="edgeStyle=orthogonalEdgeStyle;rounded=0;orthogonalLoop=1;jettySize=auto;html=1;exitX=0.5;exitY=0;exitDx=0;exitDy=0;entryX=1;entryY=0.5;entryDx=0;entryDy=0;" edge="1" parent="1" source="E7DTmkNFpHFhof6iy4eP-109" target="E7DTmkNFpHFhof6iy4eP-81">
          <mxGeometry relative="1" as="geometry" />
        </mxCell>
        <mxCell id="E7DTmkNFpHFhof6iy4eP-109" value="循环变量自增" style="rounded=0;whiteSpace=wrap;html=1;" vertex="1" parent="1">
          <mxGeometry x="570" y="630" width="120" height="60" as="geometry" />
        </mxCell>
        <mxCell id="E7DTmkNFpHFhof6iy4eP-118" style="edgeStyle=orthogonalEdgeStyle;rounded=0;orthogonalLoop=1;jettySize=auto;html=1;" edge="1" parent="1" source="E7DTmkNFpHFhof6iy4eP-115">
          <mxGeometry relative="1" as="geometry">
            <mxPoint x="20" y="990" as="targetPoint" />
          </mxGeometry>
        </mxCell>
        <mxCell id="E7DTmkNFpHFhof6iy4eP-115" value="所有周期状态写入文档" style="shape=document;whiteSpace=wrap;html=1;boundedLbl=1;" vertex="1" parent="1">
          <mxGeometry x="-40" y="820" width="120" height="80" as="geometry" />
        </mxCell>
        <mxCell id="E7DTmkNFpHFhof6iy4eP-122" value="" style="edgeStyle=orthogonalEdgeStyle;rounded=0;orthogonalLoop=1;jettySize=auto;html=1;" edge="1" parent="1" source="E7DTmkNFpHFhof6iy4eP-119" target="E7DTmkNFpHFhof6iy4eP-121">
          <mxGeometry relative="1" as="geometry" />
        </mxCell>
        <mxCell id="E7DTmkNFpHFhof6iy4eP-119" value="测试信息以及 文档" style="shape=cylinder3;whiteSpace=wrap;html=1;boundedLbl=1;backgroundOutline=1;size=15;" vertex="1" parent="1">
          <mxGeometry x="-10" y="980" width="60" height="80" as="geometry" />
        </mxCell>
        <mxCell id="E7DTmkNFpHFhof6iy4eP-121" value="结束" style="ellipse;whiteSpace=wrap;html=1;" vertex="1" parent="1">
          <mxGeometry x="-20" y="1140" width="80" height="40" as="geometry" />
        </mxCell>
        <mxCell id="E7DTmkNFpHFhof6iy4eP-126" value="" style="edgeStyle=orthogonalEdgeStyle;rounded=0;orthogonalLoop=1;jettySize=auto;html=1;" edge="1" parent="1" source="E7DTmkNFpHFhof6iy4eP-124" target="E7DTmkNFpHFhof6iy4eP-85">
          <mxGeometry relative="1" as="geometry" />
        </mxCell>
        <mxCell id="E7DTmkNFpHFhof6iy4eP-127" value="是" style="edgeLabel;html=1;align=center;verticalAlign=middle;resizable=0;points=[];" vertex="1" connectable="0" parent="E7DTmkNFpHFhof6iy4eP-126">
          <mxGeometry x="-0.0807" relative="1" as="geometry">
            <mxPoint as="offset" />
          </mxGeometry>
        </mxCell>
        <mxCell id="E7DTmkNFpHFhof6iy4eP-128" style="edgeStyle=orthogonalEdgeStyle;rounded=0;orthogonalLoop=1;jettySize=auto;html=1;exitX=0;exitY=0.5;exitDx=0;exitDy=0;entryX=0.5;entryY=0;entryDx=0;entryDy=0;" edge="1" parent="1" source="E7DTmkNFpHFhof6iy4eP-124" target="E7DTmkNFpHFhof6iy4eP-93">
          <mxGeometry relative="1" as="geometry" />
        </mxCell>
        <mxCell id="E7DTmkNFpHFhof6iy4eP-129" value="否" style="edgeLabel;html=1;align=center;verticalAlign=middle;resizable=0;points=[];" vertex="1" connectable="0" parent="E7DTmkNFpHFhof6iy4eP-128">
          <mxGeometry x="0.0078" relative="1" as="geometry">
            <mxPoint as="offset" />
          </mxGeometry>
        </mxCell>
        <mxCell id="E7DTmkNFpHFhof6iy4eP-124" value="判断发送成功" style="rhombus;whiteSpace=wrap;html=1;" vertex="1" parent="1">
          <mxGeometry x="260" y="630" width="120" height="50" as="geometry" />
        </mxCell>
      </root>
    </mxGraphModel>
  </diagram>
</mxfile>
